<mxfile host="app.diagrams.net" modified="2023-10-03T16:49:29.989Z" agent="Mozilla/5.0 (Windows NT 10.0; Win64; x64) AppleWebKit/537.36 (KHTML, like Gecko) Chrome/117.0.0.0 Safari/537.36" etag="ikCMaNkSRwPs3yihOh4L" version="21.8.2" type="github">
  <diagram id="C5RBs43oDa-KdzZeNtuy" name="Page-1">
    <mxGraphModel dx="472" dy="748" grid="1" gridSize="10" guides="1" tooltips="1" connect="1" arrows="1" fold="1" page="1" pageScale="1" pageWidth="827" pageHeight="1169" math="0" shadow="0">
      <root>
        <mxCell id="WIyWlLk6GJQsqaUBKTNV-0" />
        <mxCell id="WIyWlLk6GJQsqaUBKTNV-1" parent="WIyWlLk6GJQsqaUBKTNV-0" />
        <mxCell id="uv3L98fxsqEVN62rpJYD-0" value="Start" style="ellipse;whiteSpace=wrap;html=1;" vertex="1" parent="WIyWlLk6GJQsqaUBKTNV-1">
          <mxGeometry x="180" y="90" width="100" height="50" as="geometry" />
        </mxCell>
        <mxCell id="uv3L98fxsqEVN62rpJYD-2" value="Press the single button on the side of your phone" style="rounded=0;whiteSpace=wrap;html=1;" vertex="1" parent="WIyWlLk6GJQsqaUBKTNV-1">
          <mxGeometry x="240" y="170" width="120" height="70" as="geometry" />
        </mxCell>
        <mxCell id="uv3L98fxsqEVN62rpJYD-5" value="Swipe up on the screen to unlock the phone" style="rounded=0;whiteSpace=wrap;html=1;direction=south;" vertex="1" parent="WIyWlLk6GJQsqaUBKTNV-1">
          <mxGeometry x="100" y="270" width="120" height="70" as="geometry" />
        </mxCell>
        <mxCell id="uv3L98fxsqEVN62rpJYD-17" style="edgeStyle=orthogonalEdgeStyle;rounded=0;orthogonalLoop=1;jettySize=auto;html=1;entryX=0;entryY=0.25;entryDx=0;entryDy=0;" edge="1" parent="WIyWlLk6GJQsqaUBKTNV-1" source="uv3L98fxsqEVN62rpJYD-12" target="uv3L98fxsqEVN62rpJYD-2">
          <mxGeometry relative="1" as="geometry" />
        </mxCell>
        <mxCell id="uv3L98fxsqEVN62rpJYD-12" value="Click the green app with the call icon to open the phone app" style="rounded=0;whiteSpace=wrap;html=1;" vertex="1" parent="WIyWlLk6GJQsqaUBKTNV-1">
          <mxGeometry x="100" y="170" width="120" height="70" as="geometry" />
        </mxCell>
        <mxCell id="uv3L98fxsqEVN62rpJYD-14" value="Click the contacts icon at the bottom of the screen to open your contacts list." style="rounded=0;whiteSpace=wrap;html=1;" vertex="1" parent="WIyWlLk6GJQsqaUBKTNV-1">
          <mxGeometry x="240" y="270" width="120" height="70" as="geometry" />
        </mxCell>
      </root>
    </mxGraphModel>
  </diagram>
</mxfile>
